<svg width="24" height="24" viewBox="0 0 100 100" fill="none" xmlns="http://www.w3.org/2000/svg">
<path d="M50 12C46.7109 12 44 14.7109 44 18V20.8125C40.1094 21.7266 36.7109 23.5312 34.0938 26.1641C30.1875 30.1094 28 35.6953 28 42.125V57.7266C28 61.3984 25.9922 66.0547 23.9219 69.5078L20.3359 74.8906C19.9297 75.5078 19.8906 76.2969 20.2344 76.9453C20.5859 77.5938 21.2656 78 22 78H40C40 83.4922 44.5078 88 50 88C55.4922 88 60 83.4922 60 78H78C78.7344 78 79.4141 77.5938 79.7656 76.9453C80.1094 76.2969 80.0703 75.5078 79.6641 74.8906L76.0938 69.5312L76.0859 69.5234C73.9922 66.0312 72 61.6719 72 58V42.3984C72 31.6641 65.6094 23.3516 56 20.8828V18C56 14.7109 53.2891 12 50 12ZM50 16C51.1094 16 52 16.8906 52 18V20.2266C51.5547 20.1875 51.1172 20.1406 50.6641 20.125C50.4531 20.0469 50.2266 20.0078 50 20C49.7812 20 49.5703 20.0391 49.3672 20.1172C48.8984 20.125 48.4531 20.1719 48 20.2031V18C48 16.8906 48.8906 16 50 16ZM6.96094 18.9531C2.5 26.2031 0 34.8359 0 44C0 53.1641 2.5 61.7969 6.96094 69.0469L10.375 66.9531C6.30469 60.3359 4 52.4375 4 44C4 35.5625 6.30469 27.6641 10.375 21.0469L6.96094 18.9531ZM93.0391 18.9531L89.625 21.0469C93.6953 27.6641 96 35.5625 96 44C96 52.4375 93.6953 60.3359 89.625 66.9531L93.0391 69.0469C97.5 61.7969 100 53.1641 100 44C100 34.8359 97.5 26.2031 93.0391 18.9531ZM50 24C61.0234 24 68 31.3359 68 42.3984V58C68 63.0234 70.4062 67.8359 72.6562 71.5938C72.6797 71.6172 72.6953 71.6484 72.7109 71.6719L74.2578 74H25.7422L27.2891 71.6719C27.3047 71.6484 27.3203 71.6172 27.3438 71.5938C29.6172 67.8047 32 62.75 32 57.7266V42.125C32 36.5938 33.8281 32.1172 36.9375 28.9844C40.0391 25.8516 44.4766 24 50 24ZM15.6328 24.2812C11.9922 30.1641 10 36.7109 10 44C10 51.3438 12.2578 58.0938 15.6172 63.6953L19.0469 61.6328C16.0156 56.5703 14 50.5234 14 44C14 37.4219 15.7422 31.7031 19.0312 26.3828L15.6328 24.2812ZM84.3672 24.2812L80.9688 26.3828C84.2578 31.7031 86 37.4219 86 44C86 50.5234 83.9844 56.5703 80.9453 61.6328L84.3828 63.6953C87.7422 58.0938 90 51.3438 90 44C90 36.7109 88.0078 30.1641 84.3672 24.2812ZM44 78H56C56 81.3125 53.3125 84 50 84C46.6875 84 44 81.3125 44 78Z" fill="#6B7280"/>
</svg>
