<svg width="24" height="24" viewBox="0 0 100 100" fill="none" xmlns="http://www.w3.org/2000/svg">
<path d="M17.9843 7.98438C17.164 7.98438 16.4375 8.47656 16.125 9.22656C15.8203 9.98437 16 10.8437 16.5859 11.4141L55.1718 50L16.5859 88.5859C16.0625 89.0859 15.8515 89.8359 16.039 90.5312C16.2187 91.2344 16.7656 91.7812 17.4687 91.9609C18.164 92.1484 18.914 91.9375 19.414 91.4141L60.8281 50L19.414 8.58594C19.039 8.19531 18.5234 7.98438 17.9843 7.98438ZM43.9765 7.98438C43.164 7.98438 42.4375 8.47656 42.125 9.22656C41.8203 9.98437 42 10.8437 42.5859 11.4141L81.1718 50L42.5859 88.5859C42.0625 89.0859 41.8515 89.8359 42.039 90.5312C42.2187 91.2344 42.7656 91.7812 43.4687 91.9609C44.164 92.1484 44.914 91.9375 45.414 91.4141L86.8281 50L45.414 8.58594C45.039 8.19531 44.5234 7.98438 43.9765 7.98438Z" fill="#6B7280"/>
</svg>
