<svg width="24" height="24" viewBox="0 0 100 100" fill="none" xmlns="http://www.w3.org/2000/svg">
<path d="M55.9609 7.98434C55.4375 7.99215 54.9453 8.2109 54.5859 8.5859L13.1719 50L54.5859 91.414C55.0859 91.9375 55.8359 92.1484 56.5312 91.9609C57.2344 91.7812 57.7812 91.2343 57.9609 90.5312C58.1484 89.8359 57.9375 89.0859 57.4141 88.5859L18.8281 50L57.4141 11.414C58.0078 10.8359 58.1797 9.9609 57.8594 9.20309C57.5391 8.43746 56.7891 7.95309 55.9609 7.98434ZM81.9609 7.98434C81.4375 7.99215 80.9453 8.2109 80.5859 8.5859L39.1719 50L80.5859 91.414C81.0859 91.9375 81.8359 92.1484 82.5312 91.9609C83.2344 91.7812 83.7812 91.2343 83.9609 90.5312C84.1484 89.8359 83.9375 89.0859 83.4141 88.5859L44.8281 50L83.4141 11.414C84.0078 10.8359 84.1797 9.9609 83.8594 9.20309C83.5391 8.43746 82.7891 7.95309 81.9609 7.98434Z" fill="#6B7280"/>
</svg>
