<svg width="24" height="24" viewBox="0 0 100 100" fill="none" xmlns="http://www.w3.org/2000/svg">
<path d="M50 4C24.6186 4 4 24.6186 4 50C4 75.3814 24.6186 96 50 96C75.3814 96 96 75.3814 96 50C96 24.6186 75.3814 4 50 4ZM50 8C73.2197 8 92 26.7804 92 50C92 73.2197 73.2197 92 50 92C26.7804 92 8 73.2197 8 50C8 26.7804 26.7804 8 50 8ZM50 22C48.4087 22 46.8826 22.6321 45.7574 23.7574C44.6321 24.8826 44 26.4087 44 28C44 29.5913 44.6321 31.1174 45.7574 32.2426C46.8826 33.3679 48.4087 34 50 34C51.5913 34 53.1174 33.3679 54.2426 32.2426C55.3679 31.1174 56 29.5913 56 28C56 26.4087 55.3679 24.8826 54.2426 23.7574C53.1174 22.6321 51.5913 22 50 22ZM42 42V46H44H46V72H44H42V76H44H46H54H56H58V72H56H54V42H52H44H42Z" fill="#6B7280"/>
</svg>
