<svg width="24" height="24" viewBox="0 0 100 100" fill="none" xmlns="http://www.w3.org/2000/svg">
<path d="M0 14V86H100V14H0ZM4 18H96V23C95.2188 23.6797 60.1484 54.2734 56.875 57.125L56.6875 57.3125C54.0938 59.5703 51.4375 60 50 60C48.5703 60 45.9062 59.5703 43.3125 57.3125C42.5703 56.6641 37.2266 52.0469 33.375 48.6875C21.9453 38.7188 4.58594 23.5156 4 23V18ZM4 28.3125C7.46875 31.3359 19.7734 42.0469 30.25 51.1875L4 71.9375V28.3125ZM96 28.3125V71.9375L69.75 51.1875C80.2266 42.0469 92.5312 31.3359 96 28.3125ZM33.3125 53.875C35.7422 55.9922 40.1328 59.8281 40.6875 60.3125L40.75 60.375C44.1328 63.2812 47.7266 64 50 64C52.2891 64 55.9141 63.2734 59.3125 60.3125C59.875 59.8281 64.2969 56.0156 66.75 53.875L96 77V82H4V77L33.3125 53.875Z" fill="#6B7280"/>
</svg>
