<svg width="24" height="24" viewBox="0 0 100 100" fill="none" xmlns="http://www.w3.org/2000/svg">
<path d="M49.9687 7.97268C49.8718 7.97478 49.7752 7.98392 49.6796 8.00003H9.99992C9.4695 8.00008 8.96082 8.21081 8.58576 8.58587C8.2107 8.96093 7.99997 9.46961 7.99992 10V49.6641C7.96422 49.8801 7.96422 50.1004 7.99992 50.3164V90C7.99997 90.5304 8.2107 91.0391 8.58576 91.4142C8.96082 91.7892 9.4695 92 9.99992 92H49.664C49.88 92.0357 50.1003 92.0357 50.3163 92H89.9999C90.5303 92 91.039 91.7892 91.4141 91.4142C91.7891 91.0391 91.9999 90.5304 91.9999 90V50.336C92.0356 50.12 92.0356 49.8996 91.9999 49.6836V10C91.9999 9.46961 91.7891 8.96093 91.4141 8.58587C91.039 8.21081 90.5303 8.00008 89.9999 8.00003H50.3085C50.1962 7.98126 50.0825 7.97211 49.9687 7.97268ZM11.9999 12H47.9999V48H11.9999V12ZM51.9999 12H87.9999V48H51.9999V12ZM11.9999 52H47.9999V88H11.9999V52ZM51.9999 52H87.9999V88H51.9999V52Z" fill="#6B7280"/>
</svg>
