<svg width="24" height="24" viewBox="0 0 100 100" fill="none" xmlns="http://www.w3.org/2000/svg">
<path d="M44.4102 4C43.9361 4.00025 43.4775 4.16887 43.1162 4.4758C42.7549 4.78272 42.5144 5.20799 42.4375 5.67578L40.4922 17.5859C38.153 18.2664 35.9225 19.1845 33.8203 20.3281L23.9922 13.3086C23.6074 13.0338 23.1377 12.9043 22.6665 12.9429C22.1952 12.9815 21.7529 13.1858 21.418 13.5195L13.6367 21.293C13.3042 21.6257 13.0996 22.065 13.0589 22.5337C13.0182 23.0023 13.1439 23.4704 13.4141 23.8555L20.3281 33.7461C19.1669 35.8605 18.2284 38.1036 17.5313 40.4648L5.67188 42.4375C5.20552 42.5161 4.78208 42.7573 4.47673 43.1184C4.17137 43.4796 4.00385 43.9372 4.00391 44.4102V55.4102C4.00306 55.8803 4.16781 56.3356 4.46926 56.6964C4.7707 57.0571 5.18957 57.3001 5.65235 57.3828L17.5195 59.4844C18.2129 61.8415 19.1454 64.0861 20.3086 66.2031L13.3086 75.9961C13.0338 76.3809 12.9043 76.8506 12.9429 77.3218C12.9815 77.7931 13.1858 78.2354 13.5195 78.5703L21.2969 86.3516C21.6289 86.6837 22.0672 86.8884 22.535 86.9298C23.0028 86.9712 23.4703 86.8467 23.8555 86.5781L33.7656 79.6406C35.874 80.791 38.11 81.7159 40.457 82.4023L42.4375 94.3281C42.5152 94.7952 42.7561 95.2196 43.1173 95.5257C43.4786 95.8318 43.9367 95.9999 44.4102 96H55.4102C55.8808 96.0007 56.3367 95.8354 56.6975 95.5332C57.0583 95.2309 57.301 94.8111 57.3828 94.3477L59.5039 82.375C61.8413 81.678 64.0667 80.7394 66.1641 79.582L76.1406 86.582C76.5257 86.8522 76.9938 86.9779 77.4624 86.9372C77.9311 86.8965 78.3704 86.6919 78.7031 86.3594L86.4805 78.5742C86.8156 78.2383 87.0205 77.7942 87.0584 77.3212C87.0963 76.8483 86.9649 76.3772 86.6875 75.9922L79.5742 66.1172C80.7116 64.0299 81.6278 61.8177 82.3086 59.4961L94.3438 57.3867C94.8072 57.3049 95.227 57.0622 95.5293 56.7014C95.8315 56.3406 95.9968 55.8847 95.9961 55.4141V44.4141C95.9958 43.94 95.8272 43.4814 95.5203 43.1201C95.2134 42.7588 94.7881 42.5183 94.3203 42.4414L82.3047 40.4766C81.6194 38.1577 80.7006 35.9494 79.5625 33.8633L86.5781 23.8672C86.8483 23.4821 86.974 23.0141 86.9333 22.5454C86.8926 22.0767 86.688 21.6374 86.3555 21.3047L78.5742 13.5273C78.2383 13.1922 77.7942 12.9873 77.3212 12.9494C76.8483 12.9115 76.3772 13.0429 75.9922 13.3203L66.1445 20.4023C64.0464 19.2496 61.8194 18.316 59.4766 17.625L57.3828 5.65625C57.3018 5.19204 57.0595 4.77135 56.6986 4.46834C56.3377 4.16533 55.8814 3.99947 55.4102 4H44.4102ZM46.1133 8H53.7305L55.7227 19.3711C55.789 19.7525 55.9645 20.1064 56.228 20.39C56.4914 20.6736 56.8316 20.8746 57.207 20.9688C60.1321 21.6977 62.8792 22.8531 65.3867 24.3711C65.722 24.5742 66.1095 24.6744 66.5012 24.6591C66.8929 24.6438 67.2714 24.5138 67.5898 24.2852L76.9492 17.5586L82.3359 22.9453L75.6719 32.4414C75.4493 32.7582 75.3234 33.1328 75.3096 33.5197C75.2957 33.9066 75.3944 34.2892 75.5938 34.6211C77.0967 37.1229 78.2367 39.8528 78.9648 42.7617C79.0597 43.1406 79.2633 43.4834 79.5507 43.7479C79.8381 44.0123 80.1966 44.1869 80.582 44.25L91.9961 46.1172V53.7344L80.5586 55.7422C80.1769 55.8097 79.8231 55.9867 79.5402 56.2517C79.2572 56.5166 79.0574 56.858 78.9648 57.2344C78.2451 60.1396 77.1045 62.8694 75.6016 65.3711C75.3998 65.7063 75.3008 66.0933 75.3168 66.4842C75.3327 66.8751 75.463 67.2527 75.6914 67.5703L82.4492 76.9492L77.0625 82.3398L67.582 75.6875C67.2637 75.4645 66.8872 75.3391 66.4988 75.3266C66.1103 75.3141 65.7266 75.4151 65.3945 75.6172C62.8995 77.1352 60.1495 78.2961 57.2344 79.0352C56.8607 79.1294 56.5221 79.3295 56.2595 79.6116C55.9969 79.8936 55.8213 80.2455 55.7539 80.625L53.7344 92H46.1055L44.2227 80.6758C44.1586 80.2906 43.9831 79.9325 43.718 79.6459C43.4528 79.3592 43.1095 79.1564 42.7305 79.0625C39.8037 78.3411 37.0442 77.1874 34.5195 75.6719C34.1881 75.4734 33.8062 75.3751 33.4201 75.389C33.034 75.4028 32.6601 75.5282 32.3438 75.75L22.9375 82.3398L17.5469 76.9414L24.1953 67.6484C24.4225 67.33 24.5514 66.952 24.566 66.5611C24.5806 66.1702 24.4802 65.7837 24.2773 65.4492C22.7453 62.9177 21.5866 60.1584 20.8555 57.2188C20.7619 56.8443 20.562 56.505 20.28 56.2416C19.9979 55.9782 19.6456 55.802 19.2656 55.7344L8.00391 53.7344V46.1055L19.2578 44.2344C19.6425 44.1706 20.0002 43.9957 20.2868 43.7313C20.5735 43.4669 20.7765 43.1244 20.8711 42.7461C21.6085 39.7963 22.7667 37.0375 24.293 34.5117C24.4942 34.1801 24.5948 33.7972 24.5823 33.4095C24.5698 33.0218 24.4448 32.6461 24.2227 32.3281L17.6523 22.9375L23.0469 17.5469L32.3711 24.2109C32.6883 24.4371 33.0647 24.5658 33.454 24.581C33.8433 24.5963 34.2286 24.4975 34.5625 24.2969C37.0738 22.7886 39.8397 21.6442 42.7695 20.9258C43.1504 20.832 43.4953 20.6284 43.7613 20.3401C44.0273 20.0519 44.2027 19.6918 44.2656 19.3047L46.1133 8ZM50 34C41.1871 34 34 41.1871 34 50C34 58.8129 41.1871 66 50 66C58.8129 66 66 58.8129 66 50C66 41.1871 58.8129 34 50 34ZM50 38C56.6511 38 62 43.3489 62 50C62 56.6511 56.6511 62 50 62C43.3489 62 38 56.6511 38 50C38 43.3489 43.3489 38 50 38Z" fill="#6B7280"/>
</svg>
