<svg width="24" height="24" viewBox="0 0 100 100" fill="none" xmlns="http://www.w3.org/2000/svg">
<path d="M3.625 4C3.5625 4.01563 3.5 4.03906 3.4375 4.0625C1.49219 4.33594 0 5.98438 0 8C0 10.2109 1.78906 12 4 12C6.21094 12 8 10.2109 8 8H17.3125C19.8047 8 21.1016 8.51563 22.0625 9.375C23.0078 10.2266 23.7734 11.6641 24.4375 13.875L40.4375 78.4375C41.0391 80.7266 41.6406 83.0859 43.3125 85C44.0078 85.7969 44.8828 86.4453 45.9375 86.9375C44.7656 88.3281 44 90.0547 44 92C44 96.3984 47.6016 100 52 100C56.3984 100 60 96.3984 60 92C60 90.5312 59.5703 89.1875 58.875 88H71.125C70.4297 89.1875 70 90.5312 70 92C70 96.3984 73.6016 100 78 100C82.3984 100 86 96.3984 86 92C86 89.9453 85.1641 88.1094 83.875 86.6875C84.1016 86.0781 84.0078 85.3906 83.6406 84.8594C83.2656 84.3203 82.6562 84 82 84H51.4375C48.3516 84 47.0938 83.3438 46.25 82.375C45.4141 81.4141 44.9062 79.7344 44.3125 77.5V77.4375L42.9375 72H79.625C80.4609 72 81.2188 71.4766 81.5 70.6875L95.875 32.6875C96.1094 32.0781 96.0234 31.3906 95.6484 30.8516C95.2734 30.3125 94.6562 29.9922 94 30H32.5625L28.3125 12.9375C28.3125 12.8984 28.3125 12.8516 28.3125 12.8125C27.5469 10.2344 26.5547 8 24.75 6.375C22.9453 4.75 20.4062 4 17.3125 4H4C3.9375 4 3.875 4 3.8125 4C3.75 4 3.6875 4 3.625 4ZM33.5625 34H91.125L78.25 68H42L33.5625 34ZM52 88C54.2344 88 56 89.7656 56 92C56 94.2344 54.2344 96 52 96C49.7656 96 48 94.2344 48 92C48 89.7656 49.7656 88 52 88ZM78 88C80.2344 88 82 89.7656 82 92C82 94.2344 80.2344 96 78 96C75.7656 96 74 94.2344 74 92C74 89.7656 75.7656 88 78 88Z" fill="#6B7280"/>
</svg>
