<svg width="24" height="24" viewBox="0 0 100 100" fill="none" xmlns="http://www.w3.org/2000/svg">
<path d="M12 8C9.81387 8 8 9.81387 8 12V28C8 30.1861 9.81387 32 12 32H28C30.1861 32 32 30.1861 32 28V12C32 9.81387 30.1861 8 28 8H12ZM42 8C39.8139 8 38 9.81387 38 12V28C38 30.1861 39.8139 32 42 32H58C60.1861 32 62 30.1861 62 28V12C62 9.81387 60.1861 8 58 8H42ZM72 8C69.8139 8 68 9.81387 68 12V28C68 30.1861 69.8139 32 72 32H88C90.1861 32 92 30.1861 92 28V12C92 9.81387 90.1861 8 88 8H72ZM12 12H28V28H12V12ZM42 12H58V28H42V12ZM72 12H88V28H72V12ZM12 38C9.81387 38 8 39.8139 8 42V58C8 60.1861 9.81387 62 12 62H28C30.1861 62 32 60.1861 32 58V42C32 39.8139 30.1861 38 28 38H12ZM42 38C39.8139 38 38 39.8139 38 42V58C38 60.1861 39.8139 62 42 62H58C60.1861 62 62 60.1861 62 58V42C62 39.8139 60.1861 38 58 38H42ZM72 38C69.8139 38 68 39.8139 68 42V58C68 60.1861 69.8139 62 72 62H88C90.1861 62 92 60.1861 92 58V42C92 39.8139 90.1861 38 88 38H72ZM12 42H28V58H12V42ZM42 42H58V58H42V42ZM72 42H88V58H72V42ZM12 68C9.81387 68 8 69.8139 8 72V88C8 90.1861 9.81387 92 12 92H28C30.1861 92 32 90.1861 32 88V72C32 69.8139 30.1861 68 28 68H12ZM42 68C39.8139 68 38 69.8139 38 72V88C38 90.1861 39.8139 92 42 92H58C60.1861 92 62 90.1861 62 88V72C62 69.8139 60.1861 68 58 68H42ZM72 68C69.8139 68 68 69.8139 68 72V88C68 90.1861 69.8139 92 72 92H88C90.1861 92 92 90.1861 92 88V72C92 69.8139 90.1861 68 88 68H72ZM12 72H28V88H12V72ZM42 72H58V88H42V72ZM72 72H88V88H72V72Z" fill="#6B7280"/>
</svg>
