<svg width="24" height="24" viewBox="0 0 100 100" fill="none" xmlns="http://www.w3.org/2000/svg">
<path d="M49.8125 7.93726C49.7266 7.95288 49.6407 7.97632 49.5625 7.99976C48.6329 8.2107 47.9766 9.04663 48 9.99976V21.9998C47.9922 22.7185 48.3672 23.3904 48.9922 23.7576C49.6172 24.1169 50.3829 24.1169 51.0079 23.7576C51.6329 23.3904 52.0079 22.7185 52 21.9998V9.99976C52.0235 9.42163 51.7891 8.86694 51.375 8.47632C50.9532 8.07788 50.3829 7.88257 49.8125 7.93726ZM21.3125 19.6873C20.5625 19.8201 19.961 20.3669 19.75 21.0935C19.5391 21.8279 19.7579 22.6091 20.3125 23.1248L28.8125 31.6248C29.2969 32.2185 30.0704 32.4919 30.8204 32.3201C31.5625 32.1482 32.1485 31.5623 32.3204 30.8201C32.4922 30.0701 32.2188 29.2966 31.625 28.8123L23.125 20.3123C22.711 19.8669 22.1094 19.6404 21.5 19.6873C21.4375 19.6873 21.375 19.6873 21.3125 19.6873ZM78.0625 19.6873C77.6094 19.7498 77.1875 19.9763 76.875 20.3123L68.375 28.8123C67.7813 29.2966 67.5079 30.0701 67.6797 30.8201C67.8516 31.5623 68.4375 32.1482 69.1797 32.3201C69.9297 32.4919 70.7032 32.2185 71.1875 31.6248L79.6875 23.1248C80.3125 22.531 80.4922 21.6013 80.125 20.8201C79.75 20.031 78.9219 19.5779 78.0625 19.6873ZM49.8125 29.9998C49.75 30.0154 49.6875 30.0388 49.625 30.0623C49.5 30.0701 49.375 30.0935 49.25 30.1248C49.2266 30.1482 49.211 30.1638 49.1875 30.1873C38.5782 30.6404 30 39.281 30 49.9998C30 61.0076 38.9922 69.9998 50 69.9998C61.0079 69.9998 70 61.0076 70 49.9998C70 39.3201 61.4922 30.7107 50.9375 30.1873C50.8672 30.1873 50.8204 30.1248 50.75 30.1248C50.5469 30.0466 50.336 30.0076 50.125 29.9998C50.086 29.9998 50.0391 29.9998 50 29.9998C49.9375 29.9998 49.875 29.9998 49.8125 29.9998ZM49.875 33.9998C49.9141 33.9998 49.961 33.9998 50 33.9998C50.0625 33.9998 50.125 33.9998 50.1875 33.9998C58.9375 34.1013 66 41.2263 66 49.9998C66 58.8435 58.8438 65.9998 50 65.9998C41.1641 65.9998 34 58.8435 34 49.9998C34 41.2029 41.0938 34.0701 49.875 33.9998ZM9.43755 47.9998C8.33599 48.156 7.56255 49.1794 7.7188 50.281C7.87505 51.3826 8.89849 52.156 10 51.9998H22C22.7188 52.0076 23.3907 51.6326 23.7579 51.0076C24.1172 50.3826 24.1172 49.6169 23.7579 48.9919C23.3907 48.3669 22.7188 47.9919 22 47.9998H10C9.93755 47.9998 9.87505 47.9998 9.81255 47.9998C9.75005 47.9998 9.68755 47.9998 9.62505 47.9998C9.56255 47.9998 9.50005 47.9998 9.43755 47.9998ZM77.4375 47.9998C76.336 48.156 75.5625 49.1794 75.7188 50.281C75.875 51.3826 76.8985 52.156 78 51.9998H90C90.7188 52.0076 91.3907 51.6326 91.7579 51.0076C92.1172 50.3826 92.1172 49.6169 91.7579 48.9919C91.3907 48.3669 90.7188 47.9919 90 47.9998H78C77.9375 47.9998 77.875 47.9998 77.8125 47.9998C77.75 47.9998 77.6875 47.9998 77.625 47.9998C77.5625 47.9998 77.5 47.9998 77.4375 47.9998ZM30 67.7498C29.5469 67.8123 29.125 68.0388 28.8125 68.3748L20.3125 76.8748C19.7188 77.3591 19.4454 78.1326 19.6172 78.8826C19.7891 79.6248 20.375 80.2107 21.1172 80.3826C21.8672 80.5544 22.6407 80.281 23.125 79.6873L31.625 71.1873C32.2188 70.6169 32.3985 69.7341 32.0782 68.9763C31.7657 68.2185 31.0079 67.7341 30.1875 67.7498C30.125 67.7498 30.0625 67.7498 30 67.7498ZM69.375 67.7498C68.625 67.8826 68.0235 68.4294 67.8125 69.156C67.6016 69.8904 67.8204 70.6716 68.375 71.1873L76.875 79.6873C77.3594 80.281 78.1329 80.5544 78.8829 80.3826C79.625 80.2107 80.211 79.6248 80.3829 78.8826C80.5547 78.1326 80.2813 77.3591 79.6875 76.8748L71.1875 68.3748C70.8125 67.9763 70.2969 67.7576 69.75 67.7498C69.6875 67.7498 69.625 67.7498 69.5625 67.7498C69.5 67.7498 69.4375 67.7498 69.375 67.7498ZM49.8125 75.9373C49.7266 75.9529 49.6407 75.9763 49.5625 75.9998C48.6329 76.2107 47.9766 77.0466 48 77.9998V89.9998C47.9922 90.7185 48.3672 91.3904 48.9922 91.7576C49.6172 92.1169 50.3829 92.1169 51.0079 91.7576C51.6329 91.3904 52.0079 90.7185 52 89.9998V77.9998C52.0235 77.4216 51.7891 76.8669 51.375 76.4763C50.9532 76.0779 50.3829 75.8826 49.8125 75.9373Z" fill="#6B7280"/>
</svg>
