<svg width="24" height="24" viewBox="0 0 100 100" fill="none" xmlns="http://www.w3.org/2000/svg">
<path d="M51.75 6.8125C42.4062 6.98438 36.4375 10.7578 33.875 16.625C31.4297 22.2109 31.9766 29.2656 33.75 36.5625C32.7969 37.6797 32.0391 39.1797 32.3125 41.4375C32.6094 43.8984 33.2891 45.6484 34.25 46.875C34.7812 47.5469 35.4766 47.6094 36.125 47.9375C36.4766 50.0312 37.0625 52.125 37.9375 53.875C38.4375 54.8828 39.0078 55.8125 39.5625 56.5625C39.8125 56.8984 40.1719 57.0938 40.4375 57.375C40.4531 59.8438 40.4609 61.8984 40.25 64.5C39.6016 66.0703 38.0859 67.3359 35.625 68.5625C33.0859 69.8281 29.7812 71 26.4375 72.4375C23.0938 73.875 19.6562 75.625 16.9375 78.375C14.2188 81.125 12.2969 84.8984 12 89.875L11.875 92H92.125L92 89.875C91.7031 84.8984 89.7734 81.125 87.0625 78.375C84.3516 75.625 80.9531 73.875 77.625 72.4375C74.2969 71 71.0312 69.8281 68.5 68.5625C66.0703 67.3438 64.5391 66.1094 63.875 64.5625C63.6562 61.9297 63.6719 59.8672 63.6875 57.375C63.9531 57.0859 64.3125 56.8984 64.5625 56.5625C65.1094 55.8047 65.6328 54.875 66.125 53.875C66.9766 52.125 67.5938 50.0234 67.9375 47.9375C68.5625 47.6094 69.2344 47.5312 69.75 46.875C70.7109 45.6484 71.3906 43.8984 71.6875 41.4375C71.9531 39.25 71.2188 37.8047 70.3125 36.6875C71.2891 33.5156 72.5391 28.3906 72.125 23.125C71.8984 20.25 71.1641 17.3828 69.4375 15C67.8594 12.8125 65.2969 11.2188 62.0625 10.5625C59.9609 7.83594 56.1797 6.8125 51.8125 6.8125H51.75ZM51.8125 10.8125C51.8359 10.8125 51.8516 10.8125 51.875 10.8125C55.8984 10.8281 58.5078 12.0078 59.25 13.3125L59.75 14.125L60.6875 14.25C63.4688 14.6328 65.0625 15.7578 66.1875 17.3125C67.3125 18.8672 67.9375 21.0391 68.125 23.4375C68.5 28.2344 67.1172 33.8203 66.25 36.4375L65.75 38L67.125 38.8125C67.0391 38.7578 67.8906 39.3359 67.6875 41C67.4531 42.9609 66.9844 43.9766 66.625 44.4375C66.2656 44.8984 66.0781 44.875 66.0625 44.875L64.375 45L64.1875 46.625C64 48.3516 63.3047 50.4688 62.5 52.125C62.0938 52.9531 61.6797 53.6797 61.3125 54.1875C60.9453 54.6953 60.5625 54.9766 60.75 54.875L59.6875 55.4375V56.625C59.6875 59.5234 59.5703 61.8984 59.875 65.25V65.5L60 65.75C61.1406 68.8203 63.7812 70.7344 66.6875 72.1875C69.5938 73.6406 72.9297 74.7109 76.0625 76.0625C79.1953 77.4141 82.0625 79.0312 84.1875 81.1875C85.875 82.8984 86.9375 85.1641 87.5 88H16.5C17.0625 85.1719 18.1172 82.8984 19.8125 81.1875C21.9453 79.0312 24.8516 77.4141 28 76.0625C31.1484 74.7109 34.4609 73.6406 37.375 72.1875C40.2891 70.7344 42.9844 68.8203 44.125 65.75L44.25 65.25C44.5547 61.8984 44.4375 59.5234 44.4375 56.625V55.4375L43.375 54.875C43.5547 54.9688 43.125 54.6953 42.75 54.1875C42.375 53.6797 41.9141 52.9531 41.5 52.125C40.6719 50.4688 39.9922 48.3359 39.8125 46.625L39.625 45L37.9375 44.875C37.9219 44.875 37.7344 44.8984 37.375 44.4375C37.0156 43.9766 36.5469 42.9609 36.3125 41C36.1172 39.3359 36.9609 38.7578 36.875 38.8125L38.1875 38L37.8125 36.5625C35.9297 29.3125 35.6016 22.7266 37.5625 18.25C39.5156 13.7891 43.5 10.9844 51.8125 10.8125Z" fill="#6B7280"/>
</svg>
